<?xml version="1.0" encoding="UTF-8"?>
<svg version="1.1" xmlns="http://www.w3.org/2000/svg"
     width="512" height="512" viewBox="0 0 1024 1024">
  <g transform="translate(500.8398,-43.127851)">
    <path fill="#d4e8a0" d="m -86.582797,1039.6437 c -7.369833,-0.8662 -20.216053,-2.687 -28.547173,-4.0464 -8.33109,-1.3591 -23.0125,-4.4845 -32.62535,-6.9451 -9.61281,-2.4605 -23.50771,-6.5395 -30.87754,-9.0645 -7.36984,-2.5248 -17.99864,-6.5016 -23.61961,-8.8372 -5.62096,-2.3357 -17.47676,-7.8819 -26.34625,-12.32505 -8.86947,-4.44325 -21.04924,-11.05506 -27.06617,-14.69299 -6.01692,-3.63793 -15.92104,-10.03355 -22.00918,-14.21266 -6.08812,-4.17912 -15.78832,-11.38017 -21.55603,-16.00245 -5.76769,-4.62227 -15.73007,-13.19089 -22.13862,-19.04138 -6.40855,-5.8505 -17.33341,-16.81045 -24.27747,-24.35542 -6.94408,-7.54496 -17.06452,-19.59732 -22.48986,-26.783 -5.42534,-7.18569 -13.27834,-18.4589 -17.45109,-25.05159 -4.17274,-6.5927 -11.70868,-20.37609 -16.74651,-30.62978 -5.03782,-10.25367 -11.06436,-23.81127 -13.3923,-30.12799 -2.32794,-6.31671 -5.99764,-18.37644 -8.15486,-26.79939 -2.15724,-8.42295 -4.80109,-20.81997 -5.87523,-27.54894 -1.13345,-7.10033 -2.20318,-22.50284 -2.54919,-36.70351 -0.44271,-18.17043 -0.11965,-28.57959 1.2553,-40.43796 1.01832,-8.78293 2.96568,-21.36699 4.32747,-27.96458 1.36176,-6.5976 4.23152,-18.11077 6.37722,-25.58484 2.14569,-7.47407 6.35199,-19.79596 9.34734,-27.38199 2.99533,-7.58601 8.4728,-20.08478 12.17211,-27.77504 3.69936,-7.69026 10.9916,-21.01685 16.20501,-29.61465 5.2134,-8.59779 13.51978,-21.18185 18.45865,-27.96458 4.93887,-6.78271 14.06645,-18.44612 20.28347,-25.91869 6.21703,-7.47256 17.981,-20.47837 26.14214,-28.90184 8.16113,-8.42346 20.64491,-20.43565 27.74175,-26.69376 7.09682,-6.25811 19.45751,-16.64385 27.4682,-23.07945 8.01068,-6.43556 19.2839,-15.09377 25.0516,-19.24042 5.7677,-4.14665 17.56525,-12.26838 26.21679,-18.04825 8.65154,-5.7799 25.43028,-16.29154 37.2861,-23.35917 11.8558,-7.06766 35.45092,-20.83402 52.43357,-30.59193 16.98265,-9.7579 37.169575,-21.42623 44.859834,-25.92959 7.690258,-4.50337 21.322989,-12.6716 30.294957,-18.15161 8.971969,-5.48001 24.439874,-15.22486 34.373126,-21.65523 9.9332494,-6.43035 27.236331,-18.21683 38.451291,-26.19218 11.21496,-7.97533 30.091049,-21.86271 41.946865,-30.8608 11.855814,-8.99808 28.910819,-21.88975 37.899937,-28.64815 8.98921,-6.75838 23.14628,-16.80873 31.46014,-22.3341 8.31399,-5.52536 21.2927,-13.57984 28.84161,-17.89882 7.54893,-4.31898 19.88259,-10.63635 27.40822,-14.038594 7.5255,-3.402237 20.09289,-8.305899 27.92739,-10.897055 7.83463,-2.591146 19.69639,-5.76325 26.35965,-7.04912 6.66326,-1.285881 18.24224,-2.959147 25.73091,-3.718366 10.36471,-1.050792 17.69714,-1.061875 30.70848,-0.04642 9.73014,0.759383 22.26049,2.591572 29.0902,4.253557 6.59859,1.605757 16.55088,4.804473 22.11617,7.108253 5.56539,2.30378 13.65952,6.256583 17.98705,8.783998 4.32766,2.527415 11.78104,7.742957 16.56336,11.590067 4.78221,3.84714 11.82141,10.40674 15.64263,14.57692 3.82123,4.17018 9.88166,11.94648 13.46768,17.28062 3.58602,5.33417 8.42998,13.83112 10.76432,18.88209 2.33447,5.05098 5.74403,13.61847 7.57687,19.03883 1.83295,5.42038 4.60322,15.9071 6.15641,23.30383 1.55307,7.39671 3.45629,20.00276 4.22928,28.01345 0.8865,9.18688 1.14572,22.73944 0.70211,36.7035 -0.38679,12.17625 -1.77962,30.52799 -3.09521,40.78168 -1.3157,10.25368 -4.25942,27.75954 -6.54152,38.90194 -2.2822,11.14237 -6.43605,29.23194 -9.23083,40.19907 -2.79465,10.96711 -8.0337,29.64041 -11.64218,41.49621 -3.60848,11.85582 -12.58995,40.6943 -19.95899,64.08549 -7.36905,23.39121 -16.29981,52.75402 -19.84597,65.25068 -3.54637,12.49668 -12.63463,48.15152 -20.19623,79.23298 -7.5616,31.08145 -15.87206,63.85244 -18.46791,72.82441 -2.59561,8.97197 -7.59812,25.05033 -11.11664,35.72969 -3.51827,10.67936 -9.645,27.45811 -13.61506,37.2861 -3.97006,9.828 -10.73072,25.20979 -15.02374,34.18175 -4.29317,8.97197 -11.82951,23.28574 -16.74766,31.80838 -4.91816,8.52265 -13.14719,21.7726 -18.28697,29.44433 -5.13976,7.67176 -14.67651,20.62344 -21.19271,28.78155 -6.51623,8.15808 -20.0005,22.97936 -29.9651,32.93614 -9.96448,9.95676 -23.298,22.23282 -29.62998,27.28005 -6.332,5.04723 -17.08904,12.89303 -23.90471,17.43517 -6.81555,4.54195 -18.42409,11.52217 -25.79674,15.5116 -7.37263,3.9893 -18.37552,9.4298 -24.45082,12.0899 -6.07519,2.66 -17.409237,7.1001 -25.186648,9.8667 -7.77742,2.7666 -21.672318,6.8734 -30.877553,9.1265 -9.205247,2.2529 -23.028829,5.1452 -30.719087,6.4272 -7.690259,1.2819 -19.4123175,2.8768 -26.0490033,3.5439 -6.636578,0.6671 -25.2504977,1.1568 -41.3642687,1.088 -16.342496,-0.069 -35.222729,-0.8215 -42.697247,-1.7 z"/>
    <path fill="#4b8555" d="m -57.753337,1049.2535 c -4.624726,-0.2071 -17.327707,-1.2508 -28.228846,-2.3189 -10.901145,-1.068 -29.009657,-3.7517 -40.241127,-5.9637 -11.23148,-2.212 -27.10875,-5.9713 -35.28283,-8.3542 -8.17409,-2.3829 -21.95818,-6.9762 -30.63129,-10.2076 -8.67315,-3.2312 -22.05037,-8.8267 -29.72719,-12.4347 -7.67681,-3.6078 -20.23789,-10.1249 -27.91349,-14.48255 -7.67562,-4.35756 -20.94425,-12.65543 -29.48583,-18.43952 -8.54159,-5.78421 -22.51089,-16.30601 -31.04289,-23.38187 -8.53202,-7.07584 -23.10804,-20.65997 -32.39115,-30.18695 -9.28311,-9.52699 -19.23999,-20.44214 -22.12644,-24.25592 -2.88643,-3.81377 -6.99676,-9.1481 -9.13406,-11.85405 -2.1373,-2.70596 -5.9762,-7.89296 -8.5309,-11.52667 -2.55468,-3.63371 -6.96085,-10.39061 -9.7914,-15.01534 -2.83057,-4.62473 -8.07099,-13.81412 -11.64539,-20.42087 -3.57441,-6.60675 -8.61224,-16.87725 -11.19517,-22.82332 -2.58294,-5.94608 -6.07362,-14.52994 -7.75709,-19.07525 -1.68347,-4.54531 -4.3992,-13.19415 -6.035,-19.21964 -1.63577,-6.0255 -4.05456,-16.36764 -5.37508,-22.98254 -1.32053,-6.61491 -3.26624,-20.93955 -4.32381,-31.83253 -1.30676,-13.45965 -1.67699,-24.61641 -1.15549,-34.82077 0.42205,-8.25845 1.29972,-19.61004 1.95038,-25.22578 0.65067,-5.61574 2.26107,-15.88623 3.57866,-22.82332 1.31762,-6.93709 3.49455,-16.9373 4.83763,-22.22271 1.34307,-5.2854 4.32702,-15.2591 6.63098,-22.16378 2.30395,-6.90468 6.61935,-18.25627 9.58976,-25.22578 2.97042,-6.9695 8.9071,-19.34639 13.19262,-27.50419 4.28552,-8.15781 13.33593,-23.29328 20.11203,-33.63437 6.77609,-10.3411 18.19167,-26.09945 25.36796,-35.01857 7.17628,-8.91911 16.31918,-19.73016 20.31753,-24.02455 3.99837,-4.29439 14.04742,-14.45677 22.33121,-22.58307 8.28379,-8.12631 19.70596,-18.66708 25.3826,-23.42394 5.67663,-4.75686 16.40901,-13.51381 23.84972,-19.45988 7.44072,-5.94608 17.93168,-13.97974 23.31322,-17.8526 5.38157,-3.87287 18.1632,-12.58163 28.40367,-19.35281 10.24045,-6.77117 24.02454,-15.5451 30.63129,-19.49759 6.60675,-3.95252 22.55304,-13.27278 35.43621,-20.7117 38.06673,-21.9803 53.973625,-31.19577 66.067522,-38.27554 22.450077,-13.14223 41.540657,-24.57592 47.448486,-28.41771 3.303376,-2.14814 14.654976,-9.475 25.2257778,-16.28187 10.5708014,-6.80686 27.5982012,-18.3609 37.8386662,-25.6756 10.240469,-7.31472 29.700355,-21.64691 43.244194,-31.8493 13.54384,-10.2024 27.414364,-20.7519 30.823344,-23.44335 3.40901,-2.69146 10.70647,-8.18573 16.21658,-12.20946 5.51012,-4.02375 17.31583,-12.17704 26.23495,-18.11845 8.91911,-5.94142 22.24641,-14.15457 29.61618,-18.251456 7.3698,-4.096873 19.8025,-10.318096 27.62824,-13.824927 14.16642,-6.348192 31.0802,-12.411017 43.65869,-15.649657 3.63371,-0.935592 12.55282,-2.695479 19.82025,-3.910836 9.71805,-1.625218 19.25108,-2.19532 36.03682,-2.155123 16.89034,0.04052 25.47757,0.602078 33.03376,2.160528 5.61574,1.158234 14.53485,3.487623 19.82025,5.176417 5.2854,1.688806 14.4748,5.421139 20.42087,8.294083 5.94608,2.872943 14.59492,8.083856 19.21964,11.579789 4.62473,3.495932 12.77498,10.533411 18.11168,15.638842 5.3367,5.10545 10.74222,11.25592 12.01227,13.66771 1.27006,2.41179 3.73935,5.93716 5.48732,7.83415 1.74798,1.897 5.61614,8.18208 8.5959,13.96687 5.075,9.85231 10.10942,23.3628 14.43822,38.74661 1.02247,3.63372 2.84047,12.55283 4.03998,19.82026 1.74968,10.60077 2.16773,19.74536 2.11418,46.24726 -0.0496,24.52982 -0.6119,37.05381 -2.18433,48.64971 -1.16467,8.5888 -3.45605,22.89211 -5.09197,31.78518 -1.63594,8.89305 -4.04813,21.05549 -5.36045,27.02761 -1.31233,5.97213 -4.59089,19.23696 -7.28571,29.47743 -4.99371,18.97636 -13.20302,46.64065 -24.06116,81.08286 -3.33251,10.5708 -8.4623,26.5171 -11.3995,35.43621 -2.93721,8.91911 -9.32342,30.27093 -14.19159,47.44849 -4.86817,17.17755 -11.83581,43.39434 -15.48366,58.25953 -3.64783,14.86519 -10.44088,42.6021 -15.09569,61.63758 -4.65479,19.03549 -10.146,40.3873 -12.20266,47.44849 -2.05668,7.06118 -6.33504,20.67653 -9.50747,30.25632 -3.17243,9.57979 -7.93106,23.0936 -10.5747,30.03069 -2.64367,6.93709 -7.62171,19.09952 -11.06233,27.02762 -3.4406,7.9281 -9.75157,21.31311 -14.02436,29.74448 -4.27279,8.43135 -12.30448,22.86805 -17.84819,32.08157 -5.54373,9.21351 -12.08164,19.6128 -14.52871,23.10954 -6.01857,8.60019 -13.16612,18.20675 -19.47394,26.17353 -2.87895,3.63614 -11.45163,13.50053 -19.05038,21.92087 -7.59876,8.42033 -19.83816,20.60716 -27.19867,27.08191 -7.36052,6.47463 -15.75657,13.61051 -18.6579,15.85738 -2.90134,2.24697 -7.49605,5.63932 -10.21044,7.53866 -14.29653,10.00388 -26.28425,17.28873 -41.78687,25.39393 -9.462,4.9472 -23.16808,11.3872 -30.45795,14.3115 -7.289886,2.9242 -18.100934,6.7968 -24.024559,8.6058 -5.923626,1.8091 -14.554097,4.2794 -19.178824,5.4899 -4.624725,1.2106 -12.462734,3.019 -17.417799,4.0189 -4.955063,0.9998 -13.874181,2.627 -19.820257,3.6163 -5.946077,0.9894 -16.2165721,2.3413 -22.8233227,3.0044 -6.6067513,0.663 -20.9313903,1.4098 -31.8325283,1.6592 -10.90114,0.2494 -23.604121,0.2839 -28.228847,0.077 z M -79.976045,938.83277 c 8.919114,-1.03261 22.682105,-3.23825 30.584429,-4.90143 7.902311,-1.66315 20.605292,-4.91172 28.228846,-7.21901 7.623542,-2.3073 19.2665119,-6.30785 25.8732627,-8.89013 6.6067523,-2.58225 20.1205613,-8.66983 30.0306883,-13.52794 9.910131,-4.8581 24.775322,-13.06226 33.03376,-18.23146 8.258439,-5.16918 19.969003,-13.10469 26.023466,-17.63442 6.054477,-4.52976 17.756023,-14.15981 26.003453,-21.40012 8.24742,-7.24031 19.60088,-18.17785 25.2299,-24.30563 5.62902,-6.12779 14.73874,-16.54896 20.24381,-23.15817 5.50506,-6.6092 13.0361,-16.06887 16.73561,-21.02147 3.6995,-4.95261 11.05543,-15.49138 16.34647,-23.41948 5.29107,-7.9281 14.3959,-22.7933 20.233,-33.03376 5.83707,-10.24047 15.29951,-28.34897 21.02765,-40.24112 5.72815,-11.89215 15.02661,-32.43314 20.66327,-45.64664 5.63664,-13.2135 15.22563,-36.18698 21.3088,-51.05217 6.08319,-14.8652 18.36853,-43.51447 27.30075,-63.66506 17.20185,-38.80632 28.48127,-64.55473 40.14515,-91.64246 8.24123,-19.13908 27.68308,-65.62599 31.20516,-74.61387 5.16935,-13.19141 12.268,-33.22688 16.73892,-47.2444 2.57831,-8.08367 6.01792,-20.51637 7.64359,-27.62823 1.62565,-7.11185 3.80917,-17.79563 4.85222,-23.7417 1.04306,-5.94608 2.22302,-17.56796 2.62213,-25.8264 0.42055,-8.70249 0.15728,-19.60978 -0.6262,-25.94342 -0.74352,-6.01046 -2.43743,-15.19985 -3.76424,-20.42087 -1.3268,-5.22104 -4.59047,-14.04875 -7.25255,-19.61718 -2.6621,-5.5684 -7.22777,-13.47031 -10.14594,-17.55977 -2.91818,-4.08945 -8.09573,-9.94376 -11.50561,-13.00957 -3.40992,-3.06581 -8.63047,-7.21459 -11.60124,-9.21955 -2.97076,-2.00493 -8.71807,-5.32074 -12.77178,-7.36845 -4.05372,-2.0477 -11.08909,-4.98895 -15.63418,-6.53606 -4.54508,-1.54714 -14.27503,-3.70171 -21.62209,-4.78795 -9.80618,-1.44981 -17.1914,-1.77076 -27.77305,-1.20699 -7.92811,0.42241 -19.54999,1.79885 -25.82639,3.05876 -6.27642,1.25992 -16.81719,4.14293 -23.42394,6.40669 -6.60675,2.26375 -17.14752,6.47867 -23.42393,9.36646 -6.27642,2.88781 -16.54691,8.18759 -22.82333,11.77729 -6.27642,3.58971 -17.89829,10.8612 -25.82639,16.1589 -7.9281,5.29769 -32.25296,22.67894 -54.05523,38.62496 -21.802274,15.94605 -46.667688,33.89765 -55.256465,39.89244 -8.588776,5.9948 -25.886457,17.64971 -38.439284,25.89976 -12.5528282,8.25005 -29.580228,19.03604 -37.838666,23.96885 -8.25844,4.93282 -30.150811,17.53006 -48.649714,27.99387 -18.498904,10.46381 -42.553501,24.26692 -53.454631,30.67354 -10.90115,6.40662 -25.76633,15.29672 -33.03375,19.75577 -7.26744,4.45907 -20.78124,13.26179 -30.03069,19.56161 -9.24946,6.29982 -22.76326,15.86612 -30.03069,21.25846 -7.26742,5.39232 -19.9704,15.42943 -28.22884,22.30469 -8.25845,6.87522 -20.15059,17.3259 -26.42701,23.2237 -6.27642,5.8978 -16.47208,16.18525 -22.65703,22.86102 -6.18497,6.67576 -15.14459,17.00272 -19.91022,22.9488 -4.76569,5.94607 -12.73576,16.75712 -17.71133,24.02455 -4.97555,7.26743 -11.84967,17.99813 -15.27581,23.84599 -3.42614,5.84788 -8.83577,15.84809 -12.02136,22.2227 -3.18559,6.37465 -7.82444,16.72548 -10.30857,23.00189 -2.4841,6.27641 -5.82504,15.19552 -7.42426,19.82026 -1.59925,4.62472 -4.53334,14.77996 -6.52023,22.5672 -1.98687,7.78724 -4.66335,21.30105 -5.9477,30.03069 -1.57513,10.70612 -2.33696,22.33333 -2.34069,35.72384 -0.003,10.91847 0.56358,24.43228 1.25916,30.03069 0.69561,5.59841 2.07251,14.23305 3.0598,19.18812 0.9873,4.95506 3.3656,14.14446 5.28512,20.42087 1.91955,6.27641 5.93959,17.01089 8.93343,23.85439 2.99385,6.8435 8.76222,18.01422 12.81858,24.82383 4.05638,6.80959 10.95496,17.15666 15.33019,22.99348 4.37522,5.83681 13.80975,16.66175 20.96565,24.05543 7.15588,7.39369 17.33478,16.85335 22.61979,21.02147 5.28503,4.16815 14.29744,10.71419 20.02761,14.54677 5.73018,3.83258 19.06732,11.23908 29.63812,16.45889 10.57081,5.2198 26.5171,11.92379 35.43622,14.89778 8.9191,2.974 22.16264,6.75354 29.43007,8.39898 7.26742,1.64545 19.15957,3.81964 26.427,4.83155 7.26743,1.01188 14.83516,2.04242 16.81719,2.29008 1.98202,0.24767 12.52278,0.53062 23.42393,0.62881 11.49307,0.10354 26.633407,-0.61026 36.036835,-1.69895 z"/>
    <path fill="#5c3317" d="m -88.408335,762.73557 c -5.251054,-0.60035 -12.548515,-1.70286 -16.216575,-2.44998 -3.66805,-0.74711 -11.80443,-3.25773 -18.08085,-5.57911 -6.27642,-2.32139 -14.92525,-6.13922 -19.21964,-8.48404 -4.29439,-2.34485 -11.36869,-6.86344 -15.72067,-10.04134 -4.35198,-3.1779 -12.19345,-10.25164 -17.42548,-15.71942 -5.23203,-5.46778 -11.65562,-13.18474 -14.27462,-17.14879 -2.61902,-3.96405 -6.83075,-11.4272 -9.35942,-16.58478 -2.52867,-5.15759 -6.21548,-14.32838 -8.19292,-20.37954 -2.35683,-7.21222 -5.02321,-20.41287 -6.10894,-30.83436 -1.26699,-12.16132 -1.34849,-24.48534 -0.44112,-36.67876 0.66297,-8.90909 3.06828,-21.17096 4.2853,-26.45636 1.21704,-5.2854 4.18107,-15.28562 6.58675,-22.2227 2.40565,-6.9371 7.06247,-18.12281 10.34845,-24.85713 3.28597,-6.73433 9.43494,-17.41998 13.66438,-23.7459 4.22946,-6.32592 10.88915,-15.4169 14.79935,-20.20218 19.25635,-21.98542 40.88874,-42.02691 67.181031,-56.41832 5.783247,-3.13576 16.004719,-7.86161 22.714392,-10.50188 6.70966,-2.64028 16.709879,-5.90853 22.222709,-7.2628 5.512815,-1.35425 16.509934,-2.9608 24.438035,-3.57006 9.341826,-0.71794 19.2100672,-0.6726 28.04075905,0.12883 7.49432625,0.68013 17.67301095,2.27164 22.61931695,3.53669 4.946307,1.26506 13.584334,4.17184 19.195616,6.45954 5.611282,2.2877 14.081642,6.57822 18.82303,9.5345 4.741392,2.95626 12.396515,8.54733 17.01139,12.42457 4.614876,3.87726 11.710084,11.00985 15.767122,15.85021 4.057033,4.84035 9.942139,13.11389 13.078009,18.38563 3.13584,5.27176 7.72221,14.53581 10.19193,20.58679 2.46971,6.05098 5.60438,15.86676 6.96599,21.81283 1.36158,5.94608 2.78852,15.67602 3.17097,21.6221 0.38246,5.94608 0.77562,14.86519 0.87374,19.82026 0.0982,4.95506 -0.17643,13.06334 -0.61007,18.01841 -0.43363,4.95506 -1.64973,13.33362 -2.7024,18.61902 -1.05268,5.2854 -4.26142,16.77117 -7.13051,25.52392 -2.8691,8.75278 -7.89754,21.45575 -11.17431,28.22885 -3.27676,6.77312 -8.782218,16.63916 -12.234354,21.92456 -3.452126,5.28541 -9.645114,13.93424 -13.76219,19.21964 -4.117076,5.28541 -13.945411,15.82618 -21.840744,23.42395 -7.89532,7.59775 -19.457652,17.4383 -25.694051,21.8679 -6.236402,4.42957 -16.500579,10.75968 -22.80927,14.06691 -6.3087014,3.30722 -17.1197489,7.90177 -24.02455,10.21008 -6.904811,2.30833 -17.419168,5.05315 -23.365244,6.0996 -5.946076,1.04649 -17.838229,2.11904 -26.427005,2.38348 -8.588777,0.26442 -19.912279,-0.0109 -25.163337,-0.61082 z"/>
  </g>
</svg>